<svg version="1.2" xmlns="http://www.w3.org/2000/svg" viewBox="0 0 850 850" width="850" height="850">
	<style>
		.s0 { fill: #16384e } 
		.s1 { opacity: .38;fill: #0c1d32 } 
		.s2 { fill: #33a3d4 } 
		.s3 { fill: #376d86 } 
		.s4 { opacity: 1;fill: #eaf6f9 } 
		.s5 { fill: #fac396 } 
		.s6 { fill: #7b94a0 } 
	</style>
	<!-- Fond gris avec coins arrondis -->
	<rect x="0" y="0" width="850" height="850" fill="#4c5d6d" rx="30" ry="30"/>
	<!-- Logo DVS centré -->
	<g transform="translate(24, 24)">
	<g id="Background">
		<path id="Path 0" class="s0" d="m371.5 19.97c-2.75 0.39-8.38 1.72-12.5 2.95-4.13 1.24-9.52 3.39-12 4.8-2.48 1.41-7.43 5.31-11.01 8.67-3.57 3.36-8.64 7.57-11.25 9.36-2.61 1.79-6.31 5.39-8.23 8-1.91 2.61-4.43 7.23-5.58 10.25-1.16 3.03-2.61 9.55-3.22 14.5-0.86 6.89-0.82 11.34 0.14 19 0.7 5.5 1.46 11.69 1.71 13.75 0.34 2.93 0.06 3.88-1.31 4.34-0.96 0.33-3.05 1.12-4.63 1.75-1.59 0.64-3.35 2.06-3.93 3.16-0.57 1.1-1.38 3.8-1.78 6-0.41 2.2-0.34 7.6 0.16 12 0.5 4.4 1.7 10.2 2.67 12.89 0.97 2.7 3.37 6.75 5.34 9 1.97 2.26 5.23 4.9 7.25 5.86 3.19 1.52 3.88 2.51 5.28 7.5 0.88 3.16 2.96 8.45 4.61 11.75 1.66 3.3 5.08 8.93 7.6 12.5 4.03 5.71 4.55 7.05 4.31 11-0.15 2.47-0.8 5-1.45 5.6-0.65 0.61-10.18 4.14-21.18 7.85-11 3.7-24.5 8.53-30 10.71-5.5 2.19-12.48 5.51-15.5 7.4-3.02 1.88-6.92 4.66-8.65 6.18-1.73 1.52-4.82 5.01-6.87 7.76-2.05 2.75-5.64 8.82-7.98 13.5-2.34 4.68-10.44 22.45-18 39.5-7.57 17.05-14.04 31.34-14.38 31.76-0.34 0.42-19.63 0.76-42.87 0.75-35.57-0.01-42.72 0.23-45.25 1.49-1.65 0.82-3.1 1.61-3.22 1.75-0.13 0.14-0.46 19.6-0.75 43.25l-0.53 43c-49.98 0.98-61.34 1.61-64 2.45-2.2 0.7-6.25 2.42-9 3.82-2.75 1.39-7.49 5.06-10.53 8.13-3.04 3.08-7.16 8.75-9.15 12.6-1.99 3.85-4.74 10.6-6.11 15-1.38 4.4-3.3 12.5-4.28 18-1.33 7.5-1.79 15.5-1.83 32-0.03 12.92 0.49 25.92 1.26 31.5 0.72 5.23 2.44 14.9 3.82 21.5 1.38 6.6 4.04 17.06 5.91 23.25 1.88 6.19 5.24 15.86 7.48 21.5 2.24 5.64 7.23 16.33 11.08 23.75 3.85 7.42 9.82 17.77 13.26 23 3.44 5.23 8.96 12.87 12.26 17 3.3 4.12 9.34 11.06 13.42 15.4 4.07 4.35 11.69 11.48 16.91 15.85 5.22 4.38 14.22 11.08 20 14.91 5.78 3.83 16.13 9.81 23 13.29 6.88 3.48 18.57 8.6 26 11.38 7.43 2.77 19.57 6.63 27 8.57 7.43 1.94 18.68 4.43 25 5.54 6.32 1.1 18.03 2.78 26 3.74 10.7 1.29 21.97 1.74 43 1.72 20.71-0.01 32.6-0.5 43.5-1.78 8.25-0.97 19.95-2.65 26-3.74 6.05-1.08 17.3-3.49 25-5.34 7.7-1.85 19.51-5.2 26.25-7.45 6.74-2.25 18.66-6.82 26.5-10.16 7.84-3.33 19.65-9.02 26.25-12.63 6.6-3.6 17.63-10.3 24.5-14.88 6.88-4.58 17.9-12.51 24.5-17.62 6.6-5.12 20.35-17.63 30.56-27.8 10.21-10.17 22.87-23.9 28.15-30.5 5.28-6.6 13.29-17.17 17.8-23.5 4.51-6.33 11.69-17.12 15.94-24 4.26-6.87 10.89-18.35 14.73-25.5 3.85-7.15 10.05-19.52 13.77-27.5 3.73-7.98 9.24-20.58 12.24-28 3-7.43 8.09-21.37 11.32-31 3.22-9.62 7.07-22.23 8.54-28 1.47-5.77 4.12-17.48 5.88-26l3.2-15.5c18.5-0.98 27.7-1.98 32.37-2.86 4.67-0.88 11.65-2.66 15.5-3.97 3.85-1.3 10.38-4.05 14.5-6.11 4.13-2.06 10.42-5.68 14-8.04 3.58-2.37 9.88-7.43 14-11.25 4.13-3.83 10.05-10.29 13.16-14.36 3.11-4.08 7.26-10.34 9.22-13.91 1.95-3.57 4.21-8.75 5.01-11.5 1.33-4.53 1.31-5.22-0.21-7.33-0.93-1.28-5.51-4.26-10.18-6.62-4.67-2.36-12.1-5.47-16.5-6.9-4.4-1.43-12.05-3.29-17-4.13-4.95-0.85-13.05-1.53-18-1.53-4.95 0.01-13.05 0.67-18 1.47-4.95 0.8-11.92 2.36-15.5 3.45-3.58 1.1-8.52 2.88-11 3.97-2.48 1.09-4.84 1.79-5.25 1.55-0.41-0.24-0.75-4.14-0.74-8.68 0.01-4.54-0.65-12.07-1.45-16.75-0.8-4.68-2.66-11.88-4.13-16-1.47-4.12-4.02-10.2-5.66-13.5-1.65-3.3-5.51-9.82-8.6-14.5-3.08-4.68-9.68-12.55-14.67-17.5-4.98-4.95-12.33-11.25-16.32-14-6.44-4.44-7.56-4.89-9.97-3.99-1.59 0.6-5.4 4.58-9.21 9.65-3.58 4.75-8.38 12.17-10.68 16.49-2.3 4.32-5.39 11.45-6.86 15.85-1.48 4.4-3.31 11.82-4.07 16.5-0.76 4.68-1.38 13.23-1.38 19 0 5.77 0.69 14.77 1.54 20 0.84 5.23 3.12 14.23 5.05 20 1.93 5.77 5.55 14.32 8.04 19 2.49 4.68 5.89 10.52 7.56 13 1.67 2.48 4.55 6.52 6.4 9l3.36 4.5c-4.56 9.44-8.92 15.36-13.13 19.88-4.03 4.33-10.25 10.07-13.83 12.74-3.58 2.67-8.98 6.17-12 7.78-3.02 1.61-8.65 3.91-12.5 5.11-3.85 1.19-7.37 1.79-7.83 1.33-0.45-0.46 0-2.41 1-4.34 1.47-2.81 1.81-5.68 1.75-14.5-0.06-7.87-0.71-13.42-2.29-19.5-1.21-4.68-3.87-13.17-5.91-18.87l-3.72-10.36c4.26-2.92 5.5-4.56 5.51-5.52 0-0.96-8.01-19.75-17.81-41.75-9.8-22-20.04-44.27-22.76-49.48-3.6-6.92-6.83-11.4-11.94-16.55-4.58-4.63-9.42-8.32-14-10.68-3.85-1.98-15.1-6.52-25-10.09-9.9-3.56-21.82-7.69-26.5-9.16-4.68-1.48-9.08-3.21-9.79-3.86-0.72-0.66-1.27-3.18-1.23-5.68 0.06-3.62 0.82-5.48 3.91-9.5 2.11-2.75 5.43-7.93 7.38-11.5 1.94-3.57 4.59-9.56 5.88-13.3 2.16-6.24 2.72-6.98 6.85-9 3.04-1.49 5.57-3.82 7.81-7.2 1.82-2.75 3.98-7.25 4.79-10 0.82-2.75 1.74-8.6 2.04-13 0.37-5.42 0.11-9.29-0.8-12-0.99-2.94-2.27-4.44-4.84-5.67-1.93-0.92-4.74-2.15-6.25-2.75-2.69-1.06-2.72-1.18-1.58-5.33 0.64-2.34 1.19-10.55 1.21-18.25 0.03-10.56-0.4-15.6-1.77-20.5-1-3.58-3.15-9.2-4.79-12.5l-2.98-6c4.5-3.93 5.16-5.46 5.14-8.25 0-2.06-0.34-4.25-0.75-4.85-0.4-0.61-1.74-1.62-2.98-2.25-1.24-0.63-4.16-1.16-6.5-1.17-3.21-0.02-6.09-1.11-11.75-4.45-4.12-2.44-10.54-5.58-14.25-6.98-3.71-1.4-10.69-3.23-15.5-4.06-4.81-0.83-11.23-1.45-14.25-1.38-3.02 0.08-7.75 0.46-10.5 0.86z"/>
		<path id="Path 1" class="s1" d="m372.5 18.9c-2.2 0.33 1.85 0.63 9 0.66 8.54 0.03 15.23 0.6 19.5 1.67 3.57 0.9 7.4 1.9 8.5 2.22 1.1 0.32 0.54-0.1-1.25-0.94-1.79-0.83-7.19-2.19-12-3.02-4.81-0.83-11.23-1.44-14.25-1.36-3.02 0.09-7.3 0.43-9.5 0.77zm-15 3.44c-3.85 1.23-8.8 3.31-11 4.62-2.2 1.31-6.94 5.12-10.54 8.46-3.6 3.34-8.76 7.66-11.47 9.58-2.7 1.92-6.63 5.75-8.71 8.5-2.09 2.75-4.69 7.36-5.79 10.25-1.09 2.89-2.5 8.51-3.11 12.5-0.66 4.24-0.86 11.19-0.49 16.75 0.36 5.22 1.3 11.97 2.1 15 0.8 3.03 1.25 4.15 1 2.5-0.25-1.65-1.01-7.5-1.68-13-0.92-7.58-0.95-12.18-0.1-19 0.61-4.95 2.06-11.47 3.22-14.5 1.15-3.02 3.67-7.64 5.58-10.25 1.92-2.61 5.62-6.21 8.23-8 2.61-1.79 7.68-6 11.25-9.36 3.58-3.36 8.53-7.27 11.01-8.69 2.48-1.42 8.32-3.71 13-5.09 4.68-1.38 7.6-2.51 6.5-2.51-1.1-0.01-5.15 1-9 2.24zm67.5 8.63c6.54 3.83 9.48 4.99 12.75 5.01 2.34 0.01 5.41 0.58 6.82 1.27 1.41 0.69 2.81 2.37 3.12 3.75 0.31 1.37 0.39 3.69 0.18 5.14-0.2 1.46-0.03 2.47 0.38 2.25 0.41-0.21 0.75-1.97 0.75-3.89 0-1.92-0.34-4.24-0.75-5.14-0.41-0.9-1.99-2.25-3.5-3-1.51-0.75-4.66-1.37-7-1.37-3.24-0.01-6.04-1.08-11.75-4.49-4.13-2.46-7.95-4.48-8.5-4.49-0.55-0.01 2.82 2.23 7.5 4.96zm19.11 20.53c-0.86 1.16-0.44 2.8 1.84 7.25 1.63 3.16 2.98 5.41 3 5 0.03-0.41-1.12-3.11-2.56-6-2.5-5.05-2.53-5.3-0.75-6.52 1.03-0.69 1.35-1.26 0.72-1.25-0.62 0.01-1.64 0.69-2.25 1.52zm5.21 15c0.31 1.1 1.14 4.03 1.85 6.5 0.78 2.76 1.28 10.32 1.29 19.5 0.01 11.88 0.19 13.86 0.86 9.5 0.46-3.03 0.59-10 0.29-15.5-0.31-5.5-1.25-12.47-2.1-15.5-0.84-3.03-1.81-5.72-2.15-6-0.33-0.28-0.35 0.4-0.04 1.5zm1.53 44.62c-0.27 2.38 0.12 3.3 1.65 3.91 1.1 0.43 3.54 1.39 5.42 2.13 1.88 0.74 4.11 2.46 4.95 3.84 0.84 1.38 1.82 5.88 2.19 10 0.62 6.99 0.67 7.13 0.79 2 0.08-3.03-0.31-7.19-0.86-9.25-0.56-2.11-2.19-4.65-3.74-5.8-1.51-1.13-4.32-2.48-6.25-2.99-3.12-0.83-3.47-1.25-3.21-3.94 0.16-1.66 0.09-3.02-0.15-3.02-0.24 0-0.6 1.4-0.79 3.12zm-153.39 28.38c0.2 3.85 1.2 8.92 2.2 11.26 1.01 2.34 1.95 4.14 2.09 4 0.14-0.14-0.42-1.95-1.25-4.01-0.82-2.06-1.93-7.01-2.45-11l-0.96-7.25zm166.12 4.25c-0.36 2.61-1.56 6.78-2.68 9.25-1.11 2.47-3.23 6.05-4.71 7.95-1.48 1.89-4.49 4.21-6.69 5.15-3.63 1.55-4.21 2.34-6.35 8.56-1.29 3.76-3.94 9.77-5.88 13.34-1.95 3.57-5.27 8.75-7.38 11.5-3.09 4.02-3.85 5.88-3.91 9.5-0.04 2.51 0.51 5.01 1.23 5.66 0.71 0.63 6.92 2.98 13.79 5.2 6.88 2.23 12.73 3.87 13 3.66 0.28-0.22-5.57-2.34-13-4.73l-13.5-4.33c-0.5-9.43-0.11-10.49 3.35-14.96 2.14-2.75 5.47-7.93 7.42-11.5 1.94-3.57 4.49-9.43 5.66-13 1.84-5.6 2.57-6.66 5.35-7.68 1.77-0.65 4.76-2.9 6.65-5 1.88-2.1 4.46-6.07 5.72-8.82 1.27-2.75 2.56-7.14 2.89-9.75 0.32-2.61 0.39-4.75 0.14-4.75-0.24 0-0.73 2.14-1.1 4.75zm-148.87 23.92c0.67 0.46 1.96 3.3 2.87 6.33 0.91 3.03 3.12 8.43 4.93 12 1.8 3.57 5.24 9.2 7.63 12.5 4.05 5.57 4.33 6.35 3.86 10.87l-0.5 4.87c-34.87 11.96-48.6 16.89-53 18.67-4.4 1.78-9.57 4.17-11.5 5.33-1.92 1.15-5.67 3.7-8.33 5.67-2.66 1.98-6.88 6.29-9.37 9.59-2.49 3.3-5.91 8.7-7.6 12-1.69 3.3-9.85 21.2-18.13 39.77l-15.07 33.77c-77.83-0.04-84.97 0.2-87.5 1.46-1.65 0.82-3.45 2.4-4 3.5-0.62 1.24-1 17.83-1 43.5v41.5l-54 0.5h54.5c0.82-66.65 1.16-86.11 1.28-86.25 0.12-0.14 1.57-0.93 3.22-1.75 2.53-1.26 9.59-1.49 44.85-1.46 23.02 0.03 42.31-0.31 42.87-0.75 0.56-0.43 7.21-14.74 14.78-31.79 7.56-17.05 15.67-34.82 18-39.5 2.34-4.68 5.93-10.75 7.98-13.5 2.05-2.75 5.14-6.24 6.87-7.76 1.73-1.52 5.63-4.3 8.65-6.18 3.03-1.89 10-5.21 15.5-7.4 5.5-2.18 19-7.01 30-10.71 11-3.71 20.53-7.24 21.18-7.85 0.65-0.6 1.3-3.13 1.45-5.6 0.24-3.95-0.28-5.29-4.31-11-2.52-3.57-5.83-8.98-7.35-12-1.53-3.03-3.72-8.39-4.87-11.92-1.15-3.54-2.77-6.61-3.6-6.83q-1.57-0.43-0.29 0.42zm301.19 52.17c-1.32 1.02-4.72 4.96-7.56 8.75-2.84 3.8-7.01 10.06-9.27 13.91-2.26 3.85-5.39 10.37-6.97 14.5-1.58 4.12-3.16 9.07-3.5 11-0.34 1.93 0.76-0.55 2.45-5.5 1.68-4.95 4.95-12.53 7.26-16.85 2.3-4.32 7.13-11.73 10.73-16.46 3.65-4.81 7.72-9.07 9.21-9.65 2.37-0.92 3.44-0.51 9.46 3.64 3.74 2.57 10.44 8.19 14.89 12.5 4.45 4.3 9.79 9.84 11.85 12.32 2.79 3.34 3.16 3.59 1.45 1-1.27-1.93-6.15-7.34-10.85-12.03-4.7-4.69-11.92-10.89-16.05-13.78-4.12-2.88-8.22-5.23-9.1-5.22-0.87 0.02-2.67 0.86-4 1.87zm-160.9 4.56c0.28 0.24 5.45 2.23 11.5 4.42 6.05 2.18 11.9 4.27 13 4.65l2 0.68c-3.1-1.93-8.84-4.21-14.75-6.32-5.91-2.11-11.09-3.84-11.5-3.86-0.41-0.01-0.52 0.18-0.25 0.43zm33.5 13.33c4.52 2.37 9.57 6.27 14.25 10.97 6.59 6.63 8.03 8.88 15.73 24.55 4.66 9.49 8.48 16.8 8.48 16.25 0.01-0.55-3.66-8.43-8.15-17.5-7.47-15.09-8.81-17.14-15.74-24.04-4.32-4.31-10.15-8.91-13.57-10.72-3.3-1.75-6.45-3.18-7-3.18-0.55 0 2.15 1.65 6 3.67zm172.83 20.27c1.87 3.02 4.81 8.31 6.54 11.75 1.72 3.44 4.47 10.19 6.11 15 1.64 4.81 2.99 7.96 3 7 0.01-0.96-1.15-5.01-2.58-9-1.43-3.99-4.6-11.07-7.03-15.75-2.44-4.68-5.56-9.85-6.93-11.5-1.76-2.1-1.49-1.35 0.89 2.5zm-75.08 21.54c-0.69 4.1-1.25 12.07-1.24 17.71 0 5.64 0.69 14.52 1.54 19.75 0.85 5.23 3.12 14.23 5.06 20 1.93 5.77 5.53 14.32 8 19 2.47 4.68 5.41 9.62 6.53 11q2 2.46-0.6-2c-1.45-2.48-4.24-7.65-6.21-11.5-1.97-3.85-5.08-11.5-6.91-17-1.83-5.5-4.02-14.27-4.87-19.5-0.85-5.23-1.54-14.11-1.54-19.75-0.01-5.64 0.46-13.43 1.04-17.33 0.57-3.89 0.91-7.25 0.75-7.45-0.17-0.21-0.86 2.97-1.55 7.07zm91.27 16.96c0.28 1.65 0.84 8.56 1.25 15.35 0.4 6.79 0.96 12.49 1.23 12.66 0.28 0.16 0.18-5.39-0.22-12.36-0.39-6.96-1.18-14-1.74-15.65l-1.03-3zm-142.16 13.5c0.22 0.82 1.92 4.76 3.77 8.75 1.86 3.99 3.49 7.14 3.63 7 0.14-0.14-1.55-4.08-3.77-8.75-2.22-4.68-3.85-7.83-3.63-7zm177.64 4.13c-3.02 0.5-5.95 1.12-6.5 1.39-0.55 0.27 1.03 0.21 3.5-0.14 2.48-0.35 10.35-0.95 17.5-1.34l13-0.71c-17.05-0.08-24.47 0.31-27.5 0.8zm35.5 1.48c4.4 0.78 11.6 2.6 16 4.03 4.4 1.44 11.83 4.55 16.5 6.91 4.68 2.36 9.29 5.46 10.25 6.87 1.36 2 1.53 3.14 0.75 5.08-0.55 1.37-0.97 3.06-0.93 3.75 0.04 0.69 0.72-0.44 1.5-2.5 1.3-3.41 1.26-4-0.42-6.5-1.03-1.53-5.58-4.71-10.25-7.16-4.62-2.43-11.55-5.49-15.4-6.8-3.85-1.31-10.04-3.04-13.75-3.84-3.71-0.8-7.99-1.41-9.5-1.36-1.51 0.05 0.85 0.73 5.25 1.52zm-60 4.94c-3.3 1.37-6.22 2.78-6.5 3.13-0.27 0.35 0.4 0.28 1.5-0.16 1.1-0.44 4.7-1.84 8-3.11 3.3-1.27 5.33-2.32 4.5-2.33-0.82-0.02-4.2 1.09-7.5 2.47zm-145.55 6.45c0.01 0.27 2.73 6.57 6.05 14 3.32 7.42 6.03 14.29 6.02 15.25-0.01 0.96-1.2 2.54-2.64 3.5l-2.63 1.75c3.41 10.85 4.59 13.77 4.81 13.5 0.22-0.27-0.49-3.31-1.58-6.75l-1.98-6.25c3.88-3.1 5.01-4.79 5.02-5.75 0.01-0.96-2.71-7.83-6.06-15.25-3.34-7.43-6.29-13.73-6.55-14-0.25-0.27-0.46-0.27-0.46 0zm245.15 21.77c-1.26 2.6-4.24 7.65-6.61 11.23-2.36 3.57-7.16 9.62-10.65 13.43-3.48 3.81-9.71 9.6-13.84 12.87-4.12 3.26-10.31 7.45-13.75 9.32-3.44 1.86-6.25 3.61-6.25 3.88 0 0.27 2.59-0.9 5.75-2.61 3.16-1.71 8.23-4.95 11.25-7.19 3.03-2.24 8.58-7.03 12.34-10.64 3.76-3.61 9.23-9.71 12.16-13.56 2.93-3.85 6.94-10.04 8.91-13.75 1.98-3.71 3.46-6.97 3.29-7.23-0.17-0.26-1.34 1.65-2.6 4.25zm-175.91 27.23c3.44 4.93 4.34 6.98 3.74 8.5-0.43 1.1-0.78 2.45-0.78 3 0.01 0.55 0.61-0.35 1.33-2 1.24-2.82 1.11-3.31-2.24-8-1.97-2.75-4.25-5.68-5.07-6.5-0.83-0.83 0.53 1.42 3.02 5zm-55.07 6.5c-0.04 0.55 0.81 4.15 1.89 8 1.08 3.85 1.75 5.42 1.49 3.5-0.27-1.93-1.12-5.52-1.89-8-0.78-2.48-1.44-4.05-1.49-3.5zm4.35 27c0.02 9.72-0.32 12.66-1.79 15.5-1.01 1.92-1.46 3.88-1 4.34 0.45 0.46 2.17 0.35 3.82-0.24 2.98-1.07 2.98-1.07-0.5-0.43-3.19 0.6-3.42 0.48-2.61-1.26 0.48-1.05 1.48-3.49 2.2-5.41 0.73-1.93 1.32-6.43 1.31-10-0.01-3.58-0.34-8.3-0.74-10.5-0.48-2.63-0.72 0.1-0.69 8zm39.53-4.18c-4.12 3.99-10.42 9.24-14 11.68-3.57 2.43-9.87 5.9-14 7.7-4.12 1.8-6.82 3.27-6 3.27 0.83 0 5.1-1.78 9.5-3.95 4.4-2.16 10.93-6.17 14.5-8.9 3.58-2.74 9.19-7.7 12.47-11.05 3.28-3.34 5.75-6.06 5.5-6.04-0.26 0.02-3.84 3.3-7.97 7.29zm119 0.77c-3.02 1.07-9.32 2.67-14 3.55-4.67 0.88-13.9 1.88-20.5 2.23-11.08 0.58-12.01 0.78-12.1 2.63q-0.11 2.09 0.25 0.25c0.3-1.5 1.55-1.75 8.6-1.76 4.54 0 12.98-0.72 18.75-1.59 5.78-0.86 13.99-2.66 18.25-3.99 4.26-1.32 7.75-2.64 7.75-2.91 0-0.27-0.34-0.47-0.75-0.43-0.41 0.04-3.22 0.95-6.25 2.02zm-48.93 18.91c-0.72 4.12-2.85 13.8-4.73 21.5-1.87 7.7-5.02 19.18-6.99 25.5-1.97 6.32-5.54 16.9-7.95 23.5-2.41 6.6-4.27 12.12-4.14 12.26 0.13 0.14 2.33-5.26 4.87-12 2.55-6.74 6.24-17.44 8.2-23.76 1.97-6.32 4.91-16.9 6.54-23.5 1.63-6.6 3.71-15.82 4.61-20.5 0.9-4.68 1.47-8.95 1.27-9.5-0.21-0.55-0.96 2.37-1.68 6.5zm-617.57 6.4c-2.2 0.7-5.8 2.19-8 3.3-2.2 1.12-6.47 4.39-9.5 7.28l-5.5 5.23c8.53-7.32 13.25-10.57 16-11.95 2.75-1.38 7.7-3.1 11-3.81 3.65-0.78 4.82-1.3 3-1.3-1.65-0.01-4.8 0.55-7 1.25zm-25.31 19.35c-1.06 1.51-2.89 4.66-4.06 7-1.17 2.34-2.12 4.59-2.11 5 0.02 0.41 1.61-2.18 3.56-5.75 1.94-3.58 3.98-7.06 4.54-7.75 0.56-0.69 0.79-1.25 0.51-1.25-0.28 0-1.38 1.24-2.44 2.75zm-8.95 19.44c-1.21 3.47-2.88 9.57-3.72 13.56-0.83 3.99-1.48 8.49-1.43 10 0.06 1.51 0.77-1.08 1.6-5.75 0.83-4.68 2.5-11.86 3.71-15.96 1.22-4.1 2.17-7.61 2.13-7.81-0.05-0.2-1.08 2.48-2.29 5.96zm-6.8 39.56c-0.47 7.93-0.3 18.99 0.45 29.25 0.66 9.08 1.62 18.3 2.13 20.5 0.9 3.89 0.91 3.86 0.43-1-0.27-2.75-0.98-10.63-1.59-17.5-0.63-7.15-0.83-19.25-0.47-28.25 0.35-8.66 0.44-15.75 0.22-15.75-0.23 0-0.76 5.74-1.17 12.75zm621.27 28.55c-3.13 6.71-5.58 12.31-5.45 12.45 0.13 0.13 2.83-5.16 5.99-11.75 3.16-6.6 5.62-12.2 5.45-12.45-0.16-0.24-2.86 5.04-5.99 11.75zm-11.17 22.98c-2.11 3.97-5.41 10.14-7.34 13.72-1.93 3.58-3.04 6.05-2.46 5.5 0.58-0.55 4.04-6.63 7.68-13.5 3.65-6.88 6.49-12.6 6.3-12.72-0.19-0.12-2.07 3.03-4.18 7zm-606.44 4.22c-0.05 1.1 1.05 6.95 2.42 13 1.38 6.05 3.66 14.83 5.08 19.5 1.42 4.67 4.34 13.11 6.49 18.75 2.15 5.64 4.13 10.14 4.4 10 0.26-0.14-1.09-4.19-3-9-1.92-4.81-5.08-14.04-7.02-20.5-1.94-6.46-4.6-16.7-5.91-22.75-1.31-6.05-2.42-10.1-2.46-9zm592.32 21.25c-1.51 2.61-6.1 9.92-10.2 16.25-4.1 6.33-11.84 17.35-17.21 24.5-5.37 7.15-12.99 16.83-16.94 21.5-5.58 6.6-5.92 7.16-1.54 2.5 3.1-3.3 9.68-11.17 14.61-17.5 4.94-6.33 13.62-18.48 19.29-27 5.67-8.52 11.49-17.64 12.93-20.25 1.44-2.61 2.43-4.75 2.21-4.75-0.23 0-1.65 2.14-3.15 4.75zm-573.37 41.75c0 0.55 3.17 7.08 7.03 14.5 3.86 7.42 7.95 14.62 9.09 16l2.07 2.5c-2.81-4.65-6.91-12.3-10.91-20-4.01-7.7-7.28-13.55-7.28-13zm503.45 47.28c-9.9 9.73-14.4 14.46-10 10.52 4.4-3.94 12.72-11.91 18.48-17.73 5.77-5.81 10.27-10.55 10-10.52-0.26 0.02-8.58 8-18.48 17.73zm-483.93-11.28c0.94 1.65 3.67 5.81 6.07 9.25 2.4 3.44 4.81 6.48 5.36 6.75 0.55 0.27-1.36-2.78-4.25-6.78-2.89-4-6.07-8.39-7.07-9.75-1.81-2.44-1.81-2.44-0.11 0.53zm22.05 29.01c3.37 3.85 9.22 9.89 13 13.43 3.79 3.55 10.26 9.12 14.38 12.39 4.13 3.27 9.98 7.61 13 9.65 3.03 2.03 7.64 4.89 10.25 6.36 2.61 1.46 4.75 2.43 4.75 2.16 0-0.27-3.26-2.39-7.25-4.71-3.99-2.31-11.75-7.57-17.25-11.69-5.5-4.12-16.07-13.58-23.5-21.03-7.42-7.45-10.74-10.4-7.38-6.56zm432.88 7.63c-5.5 4.38-15.62 11.71-22.5 16.29-6.87 4.57-15.99 10.17-20.25 12.44-4.26 2.27-7.75 4.36-7.75 4.63 0 0.27 3.49-1.37 7.75-3.66 4.26-2.29 11.58-6.62 16.25-9.62 4.68-3 14.52-9.86 21.89-15.23 7.36-5.37 13.8-10.49 14.32-11.38 0.51-0.88 0.79-1.57 0.61-1.52-0.17 0.05-4.82 3.67-10.32 8.05zm-62.5 38.96c-5.77 2.7-15.32 6.82-21.21 9.16-5.89 2.33-10.51 4.35-10.25 4.49 0.25 0.14 5.75-1.84 12.21-4.39 6.46-2.56 15.91-6.61 21-9 5.09-2.4 9.25-4.59 9.25-4.86 0-0.27-0.11-0.46-0.25-0.4-0.14 0.05-4.97 2.3-10.75 5zm-313.98-1.61c-0.01 0.28 4.82 2.93 10.73 5.89 5.91 2.96 16.83 7.65 24.25 10.44 7.43 2.78 19.58 6.64 27 8.58 7.43 1.94 18.68 4.43 25 5.54 6.33 1.1 18.03 2.78 26 3.74 10.7 1.29 21.97 1.74 43 1.72 20.71-0.01 32.6-0.5 43.5-1.78 8.25-0.97 19.95-2.65 26-3.74 6.05-1.1 16.85-3.34 24-5 7.15-1.65 12.78-3.2 12.5-3.44-0.27-0.23-6.12 0.9-13 2.51-6.87 1.62-17.45 3.84-23.5 4.93-6.05 1.09-17.75 2.77-26 3.74-10.9 1.28-22.79 1.77-43.5 1.78-21.03 0.02-32.3-0.43-43-1.72-7.97-0.96-19.67-2.64-26-3.74-6.32-1.11-17.57-3.6-25-5.54-7.42-1.94-19.57-5.8-27-8.58-7.42-2.79-18.33-7.49-24.23-10.45-5.91-2.96-10.75-5.16-10.75-4.88z"/>
		<path id="Path 2" fill-rule="evenodd" class="s2" d="m622 234c0.55 0 5.84 4.84 11.76 10.75 5.94 5.93 13.31 14.56 16.44 19.25 3.12 4.68 7.11 11.65 8.85 15.5 1.75 3.85 4.1 10.38 5.23 14.5 1.69 6.15 2.07 10.56 2.11 24.5 0.03 12.59-0.38 18.69-1.59 23.5-0.9 3.57-1.45 6.61-1.22 6.75 0.23 0.14 3.01-1.49 6.17-3.61 3.16-2.13 9.13-5.57 13.25-7.65 4.12-2.07 10.65-4.85 14.5-6.16 3.85-1.32 11.05-3.05 16-3.86 4.95-0.8 12.38-1.47 16.5-1.48 4.12 0 11.33 0.65 16 1.47 4.67 0.81 11.65 2.56 15.5 3.88 3.85 1.32 9.16 3.47 11.81 4.78 3.89 1.92 4.7 2.76 4.25 4.38-0.3 1.1-2.37 5.15-4.58 9-2.22 3.85-6.83 10.35-10.25 14.45-3.43 4.1-9.15 9.81-12.73 12.7-3.58 2.89-9.42 7-13 9.13-3.58 2.14-9.42 5.07-13 6.5-3.58 1.44-10.55 3.61-15.5 4.84-7.46 1.84-11.96 2.24-26.29 2.3-16.44 0.08-17.31 0.18-17.72 2.08-0.24 1.1-1.37 7.4-2.51 14-1.13 6.6-3.89 19.2-6.12 28-2.22 8.8-6.44 23.2-9.36 32-2.92 8.8-7.56 21.63-10.32 28.5-2.76 6.88-7.32 17.67-10.15 24-2.82 6.33-8.88 18.7-13.44 27.5-4.57 8.8-11.15 20.73-14.61 26.5-3.47 5.77-9.01 14.55-12.31 19.5-3.31 4.95-9.39 13.5-13.51 19-4.12 5.5-9.99 12.92-13.03 16.5-3.05 3.58-9.84 11.18-15.09 16.91-5.25 5.72-15.17 15.35-22.04 21.39-6.88 6.04-16.77 14.23-22 18.19-5.23 3.97-14.23 10.35-20 14.19-5.77 3.84-15 9.51-20.5 12.62-5.5 3.11-15.85 8.3-23 11.53-7.15 3.24-18.4 7.78-25 10.09-6.6 2.31-16.05 5.34-21 6.74-4.95 1.39-15.52 3.81-23.5 5.37-9.85 1.93-15.06 2.54-16.25 1.9-0.96-0.51-2.88-0.7-4.25-0.43-1.38 0.27-2.5 0.05-2.5-0.5 0-0.61-1.28-0.72-3.25-0.3-2.66 0.58-3.07 0.46-2.25-0.67 0.82-1.12 0.4-1.25-2.25-0.7-1.95 0.4-3.25 0.27-3.25-0.33 0-0.59-1.12-0.72-2.75-0.3-2.22 0.57-2.56 0.44-1.75-0.67 0.82-1.14 0.39-1.23-2.5-0.53-2.6 0.63-3.31 0.55-2.75-0.33 0.53-0.82 0-1.02-1.75-0.67-1.38 0.27-2.5 0.05-2.5-0.5 0-0.57-1.2-0.75-2.75-0.42-2.2 0.47-2.45 0.35-1.25-0.56 1.17-0.89 0.73-0.98-2-0.41-2.85 0.6-3.32 0.49-2.5-0.62 0.79-1.08 0.53-1.22-1.25-0.67-1.29 0.39-2.25 0.25-2.25-0.32 0-0.57-0.96-0.71-2.25-0.32-1.8 0.55-2.05 0.41-1.25-0.7 0.81-1.12 0.48-1.25-1.75-0.68-2 0.51-2.55 0.38-2-0.48 0.55-0.88 0.09-0.96-1.75-0.32-1.84 0.64-2.3 0.56-1.75-0.32 0.55-0.86 0-0.99-2-0.48-2.02 0.52-2.55 0.38-2-0.5 0.54-0.87 0.12-1-1.5-0.49-1.81 0.57-2.05 0.44-1.25-0.68 0.8-1.12 0.55-1.26-1.25-0.71-1.29 0.39-2.25 0.25-2.25-0.32 0-0.56-0.76-0.68-1.75-0.27-1.39 0.58-1.54 0.42-0.75-0.73 0.79-1.15 0.64-1.31-0.75-0.73-0.99 0.41-1.75 0.29-1.75-0.27 0-0.56-0.76-0.68-1.75-0.27-1.38 0.57-1.54 0.42-0.75-0.71 0.81-1.17 0.58-1.31-1.25-0.73-1.64 0.52-2.05 0.38-1.5-0.52 0.53-0.87 0.24-1.02-1-0.5-1.14 0.48-5.86-1.04-13.5-4.32-6.46-2.78-16.93-7.78-23.25-11.11-6.32-3.33-16.45-9.31-22.5-13.28-6.05-3.97-14.6-10.1-19-13.61-4.4-3.51-11.73-9.99-16.29-14.41-4.56-4.42-8.28-8.27-8.28-8.54 0-0.27 2.16-1.38 4.79-2.47 2.63-1.08 6.45-3.55 8.5-5.5 2.09-1.99 3.73-4.51 3.75-5.78 0.02-1.24-0.87-3.15-1.97-4.25-1.1-1.1-2.9-2-4-2-1.1 0-5.49 1.75-9.75 3.88-4.26 2.14-11.35 5.02-15.75 6.42-4.4 1.39-12.28 3.32-17.5 4.29-6.78 1.25-14.52 1.75-27 1.74-13.69-0.01-19.68-0.46-27.5-2.07-5.5-1.13-11.91-2.55-14.25-3.16-3.9-1.01-4.66-1.79-9.16-9.35-2.7-4.54-7.49-13.42-10.64-19.75-3.15-6.33-7.63-16.45-9.96-22.5-2.32-6.05-5.41-15.05-6.85-20-1.45-4.95-3.51-13.05-4.59-18-1.08-4.95-2.65-14.29-3.5-20.75-0.88-6.67-1.55-19.21-1.56-29 0-9.49 0.49-21.07 1.09-25.75 0.6-4.68 1.98-12.1 3.07-16.5 1.09-4.4 3.69-11.6 5.79-16 2.17-4.56 5.71-9.94 8.22-12.5 2.43-2.48 6.64-5.63 9.37-7 4.93-2.48 5.21-2.5 64.47-3v36.5c0 27.79 0.31 37.28 1.31 39.75 0.72 1.79 2.41 4.04 3.75 5.01 2.31 1.66 12.13 1.76 355.14 1.74l6.8-7v-76l36.75-0.01c33.27 0 37.53-0.19 45-2 4.54-1.09 11.51-3.62 15.5-5.62 3.99-1.99 9.73-5.25 12.75-7.24 3.02-1.98 9.49-7.44 14.37-12.12 4.88-4.68 10.25-10.53 11.94-13.01 1.7-2.48 4.3-6.98 5.79-10 1.49-3.02 3.03-7.07 3.43-9 0.64-3.16 0.25-4.08-4.06-9.5-2.62-3.3-6.28-8.36-8.12-11.25-1.84-2.89-4.98-8.51-6.97-12.5-2-3.99-5.12-11.75-6.94-17.25-1.82-5.5-3.85-13.82-4.51-18.5-0.72-5.09-0.99-13.51-0.66-21 0.35-8.16 1.29-15.28 2.7-20.5 1.19-4.4 4.09-12.05 6.45-17 2.36-4.95 6.38-11.81 8.93-15.25 2.56-3.44 5.1-6.25 5.65-6.25zm-492 118h73v76h-73zm0 90h73v70h-73zm86 0h75v70h-75zm88 0h78v70h-78zm91 0h76v70h-76z"/>
		<path id="Path 3" class="s0" d="m98.93 44.27c-1.89 1.25-4.22 3.84-5.18 5.75-1.61 3.2-1.75 8.39-1.76 63.98l-0.01 60.5c3.65 7.22 5.87 9.71 8.02 10.9 3.39 1.88 6.11 1.94 83.5 1.93 76.73-0.01 80.16-0.09 83.88-1.92 2.49-1.23 4.64-3.34 6-5.91 2.09-3.95 2.12-4.79 2.12-65.5 0-56.67-0.14-61.76-1.75-64.75-0.96-1.79-3.21-4.15-5-5.25-3.18-1.95-5.06-1.99-84.82-2h-81.57z"/>
		<path id="Path 4" class="s3" d="m275 295.74c4.68 0.19 11.88 0.19 16 0 4.13-0.18 0.3-0.34-8.5-0.34-8.8 0.01-12.18 0.16-7.5 0.34zm30 0c3.57 0.19 9.65 0.19 13.5 0 3.85-0.19 0.93-0.35-6.5-0.35-7.43 0-10.57 0.16-7 0.35zm41 0.01c8.52 0.17 22.02 0.17 30 0 7.98-0.17 1-0.31-15.5-0.31-16.5 0-23.02 0.14-14.5 0.31zm49-0.01c2.48 0.2 6.75 0.2 9.5 0 2.75-0.21 0.73-0.38-4.5-0.38-5.23 0-7.48 0.17-5 0.38zm20 0c3.02 0.2 7.52 0.2 10-0.01 2.48-0.2 0-0.37-5.5-0.36-5.5 0-7.52 0.17-4.5 0.37zm19.5 0c2.75 0.2 6.8 0.2 9-0.01 2.2-0.21-0.05-0.38-5-0.38-4.95 0.01-6.75 0.18-4 0.39zm49.5-0.01c2.48 0.21 6.07 0.21 8 0 1.93-0.22-0.1-0.39-4.5-0.39-4.4 0.01-5.98 0.18-3.5 0.39zm-216.42 11.35c-1.54 0.82-1.89 2-1.75 5.97 0.09 2.72 1.29 18.56 2.66 35.2 1.36 16.64 3.19 39.02 4.05 49.75 0.85 10.73 1.72 20.62 1.93 22 0.2 1.37 0.4 3.62 0.45 5l0.08 2.5c36.81 0.36 84.01 0.81 128.62 1.23l81.13 0.77c1.02-10.85 3.3-34.7 5.74-60 2.43-25.3 4.73-48.93 5.11-52.5 0.63-5.82 0.47-6.74-1.45-8.75l-2.15-2.25c-184.84 0.05-223.15 0.41-224.42 1.08zm-119.08 44.67c10.45 0.16 27.1 0.16 37 0 9.9-0.16 1.35-0.3-19-0.3-20.35 0-28.45 0.14-18 0.3zm-31.05 127.25c0 20.62 0.14 28.95 0.3 18.5 0.16-10.45 0.16-27.33 0-37.5-0.16-10.18-0.3-1.63-0.3 19zm174-2c0 19.52 0.13 27.4 0.3 17.5 0.16-9.9 0.16-25.88 0-35.5-0.17-9.63-0.3-1.52-0.3 18zm-267.08 45.5c0 5.5 0.17 7.52 0.37 4.5 0.2-3.02 0.2-7.52-0.01-10-0.2-2.48-0.37 0-0.36 5.5z"/>
		<path id="Path 5" class="s4" d="m163.5 673.6c-3.85 1.35-11.28 3.37-16.5 4.49-6.12 1.31-15.2 2.23-25.5 2.6-9.65 0.34-19.37 0.12-24.5-0.56-4.67-0.62-10.8-1.69-13.6-2.38l-5.11-1.25c8.96 10.08 14.63 15.97 18.38 19.61 3.76 3.63 9.75 8.99 13.33 11.9 3.58 2.91 10.33 7.87 15 11.01 4.68 3.15 12.78 8.01 18 10.81 5.22 2.79 14.45 7.16 20.5 9.69 6.05 2.53 16.63 6.33 23.5 8.44 6.88 2.11 18.13 5 25 6.41 6.88 1.41 17.68 3.23 24 4.06 6.32 0.83 19.15 2.02 28.5 2.65 9.85 0.67 24.99 0.9 36 0.54 10.45-0.33 25.07-1.31 32.5-2.17 7.43-0.86 14.85-1.94 16.5-2.41l3-0.86c-5.04-0.14-13.36-1.52-21.75-3.16-8.39-1.64-21.77-4.82-29.75-7.07-7.98-2.26-19.9-6.13-26.5-8.61-6.6-2.49-19.65-8.27-29-12.86-9.35-4.58-22.4-11.88-29-16.22-6.6-4.34-16.5-11.53-22-15.99-5.5-4.45-12.93-11.07-16.5-14.69-3.57-3.63-6.72-6.56-7-6.52-0.28 0.05-3.65 1.19-7.5 2.54z"/>
		<path id="Path 6" class="s5" d="m337.23 77.25c-0.55 0.69-2.12 3.5-3.49 6.25-1.38 2.75-3.63 8.6-5.01 13-1.38 4.4-2.78 10.36-3.12 13.25-0.33 2.89-0.27 5.26 0.14 5.27 0.41 0.02 2.44-0.66 4.5-1.5 2.8-1.13 7.67-1.52 19.25-1.52 8.59 0 16.73 0.48 18.25 1.07 1.51 0.58 3.65 1.9 4.75 2.93 1.49 1.38 3.88 1.94 9.32 2.18 6.17 0.27 7.48 0.04 8.25-1.43 0.51-0.96 2.5-2.42 4.43-3.25 2.61-1.12 7.49-1.5 19.25-1.51 13.03-0.01 16.36 0.3 19.3 1.75l3.54 1.76c0.32-5.04-0.49-11-1.59-16.5-1.1-5.5-2.9-12.36-4-15.25-1.11-2.89-2.41-5.92-2.91-6.75-0.76-1.27-1.8-0.98-6.74 1.9-3.22 1.87-9 4.46-12.85 5.76-3.85 1.3-10.62 2.86-15.03 3.47-4.42 0.61-11.17 0.81-15 0.44-3.84-0.36-9.67-1.35-12.97-2.19-3.3-0.84-10.39-3.52-15.75-5.95-5.36-2.44-10.15-4.43-10.64-4.43-0.49 0-1.33 0.56-1.88 1.25zm-2.63 46c-1.61 1.09-1.79 2.23-1.35 8.75 0.28 4.13 1.17 8.85 1.99 10.5 0.81 1.65 2.22 3.34 3.12 3.75 0.9 0.41 6.03 0.75 11.39 0.76 7.04 0 10.38-0.41 12-1.5 1.24-0.83 2.7-3.2 3.24-5.26 0.55-2.06 1-6.56 1-10 0.01-5.25-0.31-6.41-1.99-7.25-1.1-0.55-7.75-1-14.78-1-8.56 0-13.38 0.41-14.62 1.25zm64.45-0.59c-1.11 0.39-1.4 2.18-1.24 7.67 0.11 3.95 0.65 8.86 1.2 10.92 0.54 2.06 1.89 4.2 2.99 4.75 1.1 0.55 6.5 1 12 1 9.12 0 10.18-0.2 11.98-2.25 1.1-1.25 2.44-4.93 3-8.25 0.55-3.3 1.01-7.24 1.01-8.75 0.01-1.51-0.67-3.42-1.49-4.25-1.19-1.19-4.23-1.48-14.75-1.42-7.29 0.04-13.9 0.3-14.7 0.58zm-90.57 2.47c-1.51 0.81-1.79 2.1-1.64 7.67 0.1 3.68 0.86 9.17 1.7 12.2 0.84 3.03 2.86 7.19 4.49 9.25 2.11 2.66 4.2 4.05 7.22 4.79l4.25 1.04c2.78 11.18 5.25 17.78 7.29 21.9 2.57 5.18 6.19 10.09 11.81 16 5.19 5.46 10.22 9.65 14 11.67 3.25 1.74 8.37 3.88 11.4 4.76 3.02 0.89 8.42 1.6 12 1.59 3.57-0.01 8.75-0.63 11.5-1.36 2.75-0.74 7.47-2.59 10.5-4.11 3.37-1.7 8.6-5.94 13.5-10.92 4.4-4.48 9.68-11.06 11.73-14.63 2.05-3.56 4.61-9.41 5.69-12.98 1.07-3.57 2.17-7.62 2.44-9 0.39-1.94 1.46-2.77 4.82-3.7 2.38-0.65 5.53-2.45 7.02-4 1.48-1.54 3.35-4.37 4.15-6.3 0.8-1.93 1.99-6.87 2.64-11 0.65-4.12 0.92-8.51 0.6-9.75-0.33-1.24-1.49-2.7-2.59-3.25-1.1-0.55-2.45-0.78-3-0.5-0.55 0.28-1.31 1.96-1.69 3.75-0.38 1.79-1.73 4.49-3 6-1.27 1.51-3.1 2.75-4.06 2.75-1.28 0-2.09 1.4-3.04 5.25-0.7 2.89-2.5 6.8-4 8.69-1.49 1.89-4.29 4.07-6.21 4.84-2.55 1.03-6.93 1.32-16.18 1.06-10.87-0.29-13.08-0.63-15.5-2.39-1.55-1.13-3.84-4.06-5.08-6.5-1.31-2.58-2.58-7.46-3-11.59l-0.74-7.13-11 0.27c-0.44 5.43-1 9.36-1.53 12.25-0.67 3.6-1.99 6.4-4.22 8.91-1.79 2.01-4.71 4.26-6.5 5-2.12 0.87-7.51 1.33-15.5 1.32-10.82-0.01-12.71-0.27-16.16-2.25-2.15-1.22-4.75-3.8-5.77-5.73-1.02-1.93-2.19-5.42-2.59-7.77-0.58-3.37-1.15-4.25-2.73-4.22-1.1 0.02-2.99-0.98-4.19-2.23-1.21-1.26-2.9-3.97-3.75-6.03-0.86-2.06-1.94-3.94-2.41-4.17-0.47-0.23-1.68 0.02-2.67 0.55zm35.03 91.58c-0.43 2.08-0.49 6.49-0.13 9.79 0.36 3.3 1.52 7.8 2.58 10 1.05 2.2 4.08 6.06 6.73 8.57 2.86 2.72 7.25 5.54 10.81 6.95 4.97 1.97 7.8 2.37 16.5 2.37 8.37 0 11.61-0.43 16-2.15 3.02-1.18 7.64-3.74 10.25-5.69 2.61-1.95 4.75-4.23 4.75-5.05 0-0.82 0.67-1.72 1.5-2 0.82-0.27 2.16-2.64 2.96-5.25 0.8-2.61 1.77-7.45 2.14-10.75 0.47-4.1 0.33-6.24-0.45-6.75-0.63-0.41-0.82-1.31-0.42-2 0.4-0.69-0.84-0.06-2.75 1.39-1.91 1.45-5.51 3.64-7.98 4.87-2.48 1.23-7.88 3.09-12 4.13-4.13 1.03-9.98 1.88-13 1.88-3.03 0-8.88-0.85-13-1.89-4.13-1.03-9.75-3.01-12.5-4.38-2.75-1.38-6.39-3.7-8.1-5.17l-3.1-2.67zm-125.36 157.53l-3.21 10.27 0.56 44c38.12 0.48 39.47 0.37 39.08-1.25-0.24-0.97-0.73-6.25-1.11-11.75-0.37-5.5-1.19-10.59-1.82-11.3-0.76-0.86-3.77-1.28-8.9-1.25-6.46 0.04-8.09-0.29-9.75-1.95-1.1-1.1-2.02-2.79-2.03-3.75-0.02-0.97 0.77-2.51 1.75-3.44 1.34-1.27 3.87-1.74 10.28-1.89l8.5-0.2c-1.05-7.92-1.39-12.36-1.43-14.97-0.05-3.65-0.48-4.86-1.82-5.2-0.96-0.24-6.7-1.84-12.75-3.55-6.05-1.72-11.71-3.32-12.57-3.57-1.21-0.36-2.27 1.81-4.78 9.8zm307.35-5.75l-14 3.23c-0.98 5.26-1.52 9.71-1.82 13.29l-0.57 6.5c15.27 0.51 16.63 0.85 18.18 2.77 0.99 1.23 1.79 2.45 1.79 2.73-0.01 0.27-0.93 1.73-2.05 3.25-1.94 2.62-2.42 2.75-10.53 2.75h-8.5c-0.92 11.23-1.26 16.97-1.35 20l-0.15 5.5h37.47c7.5-7.5 7.53-7.61 7.89-16.77 0.27-7.11-0.16-11.3-1.88-18.23-1.22-4.95-3.75-13.39-5.6-18.75-1.86-5.37-3.72-9.69-4.13-9.62-0.41 0.07-7.05 1.58-14.75 3.35z"/>
		<path id="Path 7" class="s6" d="m373.8 118.27c0.38 0.42 3.85 0.64 7.7 0.49l7-0.28c-11.94-0.76-15.09-0.63-14.7-0.21zm-113.72 180.23c-1.69 1.38-3.48 3.96-3.96 5.75-0.61 2.23 0.65 21.51 3.98 61.25 2.68 31.9 4.88 59.01 4.89 60.25 0.01 2.03 0.5 2.25 5.01 2.25h5c-0.73-8.91-1.64-20.05-2.48-30.5-0.85-10.45-2.67-32.61-4.03-49.25-1.37-16.64-2.49-32.5-2.49-35.25 0-4 0.4-5.2 2-6 1.3-0.65 41-1 113-1h111c4.07 4.26 4.23 5.18 3.6 11-0.38 3.58-2.68 27.2-5.11 52.5-2.44 25.3-4.67 49.04-4.96 52.75l-0.53 6.75c7.75 0 9.98-0.34 9.96-0.75-0.02-0.41 2.54-27.98 5.7-61.25 5.23-55.06 5.62-60.8 4.29-63.86-0.8-1.85-2.8-4.2-4.45-5.22-2.88-1.78-7.79-1.86-120.17-1.89l-117.16-0.03zm-45.62 109.75l0.03 21.25 40 0.06-39.5-0.56-0.55-42zm300.02 21.49c3.3 0.2 8.93 0.2 12.5 0 3.58-0.2 0.88-0.36-6-0.36-6.87 0-9.8 0.16-6.5 0.36z"/>
		<path id="Path 9" class="s0" d="m373.58 167.05c-1.06 0.58-1.84 1.7-1.75 2.5 0.09 0.8 1.07 2.35 2.17 3.45 1.53 1.53 3.35 2 7.75 2.02 3.16 0.01 6.57-0.56 7.58-1.25 1.15-0.8 1.71-2.19 1.5-3.77-0.31-2.31-0.74-2.51-5.83-2.58-3.02-0.05-6.4-0.38-7.5-0.75-1.1-0.36-2.86-0.19-3.92 0.38zm-1.08 184.11c-1.1 0.61-3.26 2.28-4.8 3.72-1.59 1.48-3.42 4.79-4.23 7.62-1.04 3.68-1.16 6.05-0.44 9 0.53 2.2 2.02 5.35 3.3 7 1.28 1.65 4.09 3.85 6.25 4.88 2.83 1.36 5.47 1.78 9.49 1.5 4.12-0.28 6.52-1.1 9.25-3.13 2.02-1.51 4.41-4.21 5.3-6 0.88-1.79 1.62-5.5 1.64-8.25 0.01-2.75-0.67-6.35-1.52-8-0.85-1.65-2.61-3.98-3.89-5.18-1.29-1.2-3.59-2.67-5.1-3.25-1.51-0.59-5.11-1.06-8-1.04-2.89 0.02-6.15 0.53-7.25 1.13zm-155.75 235.91c-2.06 0.51-5.66 2.22-8 3.8-2.45 1.65-5.4 4.93-6.97 7.75-2.15 3.87-2.72 6.23-2.76 11.38-0.03 4.91 0.55 7.72 2.39 11.5 1.34 2.75 4.16 6.34 6.26 7.97 2.11 1.63 5.41 3.53 7.33 4.21 1.93 0.68 5.3 1.24 7.5 1.26 2.2 0.01 5.8-0.51 8-1.17 2.44-0.73 5.98-3.17 9.06-6.24 3.74-3.72 5.4-6.33 6.4-10.03 0.74-2.75 1.1-7.02 0.8-9.5-0.29-2.48-1.31-6.08-2.26-8-0.95-1.92-2.91-4.78-4.36-6.34-1.45-1.56-4.21-3.65-6.14-4.63-1.92-0.99-5.75-2.04-8.5-2.34-2.75-0.3-6.69-0.13-8.75 0.38z"/>
		<path id="Path 10" class="s3" d="m141.88 363c-0.06 0.27-0.06 0.84 0 1.25 0.07 0.41 0.15 12.11 0.18 26l0.06 25.25h8.81v-53c-6.92 0-8.98 0.23-9.05 0.5zm20.19 26v26.5h8.86v-53h-8.86zm19.18-26.08c-0.32 0.23-0.51 11.93-0.42 26l0.16 25.58c5.05 0.41 7.3 0.29 8.26 0.01 1.61-0.47 1.75-2.6 1.75-26.26v-25.75c-7.1 0-9.43 0.19-9.75 0.42zm-40.01 92.28c-0.31 0.39-0.45 10.52-0.3 22.5l0.26 21.8h9.3l0.4-45c-7.05 0-9.35 0.32-9.66 0.7zm20.17-0.45c-0.41 0.32-0.67 10.52-0.58 22.67l0.17 22.08h10v-45c-6.86-0.26-9.18-0.08-9.59 0.25zm19.51 21.9c0.07 20.38 0.23 22.4 1.83 22.86 0.96 0.28 3.21 0.4 5 0.25l3.26-0.26c-0.01-38.8-0.31-44.06-1.26-44.25-0.69-0.14-2.98-0.41-5.08-0.6l-3.84-0.35zm47.98 0.2l0.11 22.65h10c0-38.83-0.3-44.05-1.25-44.19-0.69-0.11-2.99-0.4-5.11-0.65l-3.86-0.46zm20.42-0.11l0.19 22.76h8l0.43-45.18-8.81-0.33zm21.44-22.03l-2.75 0.28-0.01 44.5c5.04 0.41 7.29 0.3 8.26 0.02 1.6-0.47 1.73-2.35 1.56-22.89-0.18-21.92-0.22-22.38-2.25-22.29-1.13 0.05-3.3 0.22-4.81 0.38zm47.33 22.25l0.42 22.53c6.82 0.79 8.9 0.57 9.13 0 0.22-0.55 0.28-10.83 0.13-22.85l-0.26-21.85-9.84-0.37zm19.94-0.41c-0.01 12.34 0.32 22.63 0.73 22.85 0.41 0.22 2.55 0.54 4.75 0.7 2.71 0.2 3.92-0.09 3.75-0.9-0.14-0.66-0.28-10.99-0.32-22.95l-0.07-21.75-8.83-0.4zm20.29 0.45l0.2 22.5h8l0.39-45h-8.79zm50.78 0.5v23h8.84v-46h-8.84zm20.04-0.3l-0.04 23.3h8.84l0.1-46.13-8.85-0.46zm19.44-21.93c-0.21 0.7-0.32 11.11-0.23 23.13l0.17 21.85 9.42 0.24v-46.5c-7.25 0-9.12 0.49-9.36 1.28z"/>
		<path id="Path 11" class="s4" d="m106.5 55.45l-2.41 2.46c-0.17 108.98-0.06 112.74 1.62 114.87l1.79 2.28 153-0.05c3.47-4.36 3.58-8.15 3.54-60.76l-0.04-56.25-5-5h-150.09z"/>
		<path id="Path 13" class="s0" d="m195.2 78.75c-1.17 1.01-7.82 16-15.62 35.25-7.47 18.43-13.58 34.51-13.58 35.75 0 1.24 0.68 2.93 1.5 3.75 0.82 0.82 2.74 1.51 4.25 1.53 1.51 0.02 3.48-0.77 4.37-1.75 0.9-0.98 7.77-16.85 15.27-35.28 7.51-18.43 13.64-34.51 13.63-35.75-0.01-1.24-1.03-2.93-2.27-3.76-1.24-0.83-2.98-1.5-3.88-1.5-0.89 0.01-2.54 0.8-3.67 1.76zm-46.8 11.35c-2.14 1.71-8.74 7.78-14.65 13.5-8.48 8.2-10.76 10.98-10.78 13.15-0.02 2.14 2.38 5.29 10.85 14.25 5.98 6.32 12.47 12.4 14.43 13.5 3.41 1.92 3.66 1.93 6.15 0.25 1.91-1.29 2.6-2.61 2.59-5 0-2.78-1.41-4.65-9.75-12.92l-9.74-9.68c22.07-21 22.71-21.83 22.07-24.65-0.37-1.65-1.44-3.57-2.37-4.27-0.94-0.69-2.42-1.26-3.3-1.25-0.87 0.01-3.35 1.42-5.5 3.12zm63.6-0.1c-1.1 1.1-1.98 3.01-1.96 4.25 0.03 1.43 3.04 5.34 8.29 10.75 4.54 4.67 8.91 9.3 9.71 10.28 1.34 1.64 0.63 2.62-8.25 11.5-7.5 7.5-9.73 10.35-9.75 12.47-0.02 1.51 0.86 3.65 1.96 4.75 1.1 1.1 3.01 1.99 4.25 1.97 1.52-0.02 6.38-4.13 15.05-12.75 7.03-7 13.04-13.62 13.35-14.72 0.3-1.1 0.01-3.13-0.66-4.5-0.67-1.38-6.67-7.77-13.35-14.21-8.01-7.72-12.91-11.72-14.39-11.75-1.24-0.02-3.15 0.86-4.25 1.96z"/>
		<path id="Path 15" class="s4" d="m224.45 599.22c-0.9 1.22-1.6 3.47-1.55 5 0.06 1.53 1.11 3.69 2.35 4.8 1.24 1.11 3.15 2.03 4.25 2.04 1.1 0.01 2.99-0.78 4.21-1.77 1.21-0.98 2.48-2.92 2.81-4.29 0.41-1.7-0.06-3.38-1.46-5.25-1.55-2.07-2.91-2.75-5.51-2.75-2.41 0-3.95 0.67-5.1 2.22z"/>
	</g>
	</g>
</svg>
